<?xml version="1.0" encoding="iso-8859-1"?>
<!-- Uploaded to: SVG Repo, www.svgrepo.com, Generator: SVG Repo Mixer Tools -->
<!DOCTYPE svg PUBLIC "-//W3C//DTD SVG 1.1//EN" "http://www.w3.org/Graphics/SVG/1.1/DTD/svg11.dtd">
<svg fill="#000000" version="1.1" id="Capa_1" xmlns="http://www.w3.org/2000/svg" xmlns:xlink="http://www.w3.org/1999/xlink" 
	 width="800px" height="800px" viewBox="0 0 189.748 189.748"
	 xml:space="preserve">
<g>
	<path d="M76.958,98.819V86.717c27.781,0,51.915,14.774,57.381,35.148l-11.697,3.151C118.582,109.837,99.36,98.819,76.958,98.819z
		 M189.748,145.468h-12.365c-1.318,22.301-15.96,39.938-33.811,39.938H46.435c-17.838,0-32.474-17.638-33.797-39.938H0.26v-12.105
		h2.016C0.828,130.075,0,126.63,0,123.095c0-16.532,16.547-30.186,37.702-31.829c7.516-18.069,30.148-30.769,55.896-30.769
		c25.693,0,48.272,12.646,55.851,30.65c22.047,0.951,39.59,14.919,39.59,31.947c0,3.547-0.769,7.005-2.198,10.268h2.902
		L189.748,145.468L189.748,145.468z M15.838,132.594l-0.925,0.769h157.575c2.092-2.258,4.445-5.764,4.445-10.268
		c0-10.781-13.695-19.896-29.892-19.896l-6.507,0.201l-1.242-4.616c-4.072-15.17-23.294-26.188-45.695-26.188
		c-22.373,0-41.595,10.985-45.69,26.128l-1.206,4.469h-4.637c-16.275,0-29.965,9.114-29.965,19.896
		C12.105,126.417,13.364,129.62,15.838,132.594z M165.177,145.468H24.84c1.162,15.604,10.344,27.833,21.589,27.833h97.137
		C154.827,173.301,164.012,161.071,165.177,145.468z M42.132,4.342H30.027v54.474h12.105V4.342z M98.621,4.342H86.516v41.653h12.105
		V4.342z M155.11,4.342h-12.105v54.474h12.105V4.342z"/>
</g>
</svg>